<!DOCTYPE svg PUBLIC "-//W3C//DTD SVG 1.1//EN" "http://www.w3.org/Graphics/SVG/1.1/DTD/svg11.dtd">
<!-- Uploaded to: SVG Repo, www.svgrepo.com, Transformed by: SVG Repo Mixer Tools -->
<svg version="1.0" id="Layer_1" xmlns="http://www.w3.org/2000/svg" xmlns:xlink="http://www.w3.org/1999/xlink" width="800px" height="800px" viewBox="-30.08 -30.08 124.16 124.16" enable-background="new 0 0 64 64" xml:space="preserve" fill="#dce6ea" stroke="#dce6ea">
<g id="SVGRepo_bgCarrier" stroke-width="0" transform="translate(0,0), scale(1)">
<rect x="-30.08" y="-30.08" width="124.16" height="124.16" rx="62.08" fill="#b751e6dce6ea" strokewidth="0"/>
</g>
<g id="SVGRepo_tracerCarrier" stroke-linecap="round" stroke-linejoin="round" stroke="#b751e6CCCCCC" stroke-width="0.128"/>
<g id="SVGRepo_iconCarrier"> <g> <polygon fill="#b751e6" points="44,2.344 44,16 57.656,16 "/> <path fill="#b751e6" d="M40,24c-2.211,0-4-1.789-4-4V0H8C5.789,0,4,1.789,4,4v56c0,2.211,1.789,4,4,4h48c2.211,0,4-1.789,4-4V24H40 z M24,24h4c2.211,0,4,1.789,4,4s-1.789,4-4,4h-4c-2.211,0-4-1.789-4-4S21.789,24,24,24z M40,48H24c-2.211,0-4-1.789-4-4 s1.789-4,4-4h16c2.211,0,4,1.789,4,4S42.211,48,40,48z"/> </g> </g>
</svg>